<svg width="438" height="367" viewBox="0 0 438 367" fill="none" xmlns="http://www.w3.org/2000/svg">
<g clip-path="url(#clip0_747_133)">
<g clip-path="url(#clip1_747_133)">
<g filter="url(#filter0_f_747_133)">
<rect width="4" height="106" rx="0.5" transform="matrix(-1 0 0 1 437.5 268.35)" fill="#565553"/>
<rect x="0.25" y="-0.25" width="4.5" height="106.5" rx="0.75" transform="matrix(-1 0 0 1 438 268.35)" stroke="black" stroke-width="0.5"/>
</g>
<g filter="url(#filter1_f_747_133)">
<rect x="0.25" y="-0.25" width="2.5" height="104.5" rx="0.35" transform="matrix(-1 0 0 1 437 269.35)" stroke="#31302E" stroke-width="0.5"/>
</g>
<g filter="url(#filter2_f_747_133)">
<rect width="2" height="7" rx="0.1" transform="matrix(-1 0 0 1 436.5 269.35)" fill="url(#paint0_linear_747_133)"/>
</g>
<g filter="url(#filter3_f_747_133)">
<rect x="436.5" y="373.35" width="2" height="7" rx="0.1" transform="rotate(180 436.5 373.35)" fill="url(#paint1_linear_747_133)"/>
</g>
</g>
<g clip-path="url(#clip2_747_133)">
<g filter="url(#filter4_f_747_133)">
<rect x="0.5" y="181.35" width="4" height="31" rx="0.5" fill="#565553"/>
<rect x="0.25" y="181.1" width="4.5" height="31.5" rx="0.75" stroke="black" stroke-width="0.5"/>
</g>
<g filter="url(#filter5_f_747_133)">
<rect x="1.25" y="182.249" width="2.5" height="29.5" rx="0.35" stroke="#31302E" stroke-width="0.5"/>
</g>
<g filter="url(#filter6_f_747_133)">
<rect x="1.5" y="182.499" width="2" height="4" rx="0.1" fill="url(#paint2_linear_747_133)"/>
</g>
<g filter="url(#filter7_f_747_133)">
<rect width="2" height="4" rx="0.1" transform="matrix(1 0 0 -1 1.5 211.499)" fill="url(#paint3_linear_747_133)"/>
</g>
</g>
<g clip-path="url(#clip3_747_133)">
<g filter="url(#filter8_f_747_133)">
<rect x="0.5" y="244.35" width="4" height="68" rx="0.5" fill="#565553"/>
<rect x="0.25" y="244.1" width="4.5" height="68.5" rx="0.75" stroke="black" stroke-width="0.5"/>
</g>
<g filter="url(#filter9_f_747_133)">
<rect x="1.25" y="245.1" width="2.5" height="66.5" rx="0.35" stroke="#31302E" stroke-width="0.5"/>
</g>
<g filter="url(#filter10_f_747_133)">
<rect x="1.5" y="245.35" width="3" height="7" rx="0.1" fill="url(#paint4_linear_747_133)"/>
</g>
<g filter="url(#filter11_f_747_133)">
<rect width="3" height="7" rx="0.1" transform="matrix(1 0 0 -1 1.5 311.35)" fill="url(#paint5_linear_747_133)"/>
</g>
</g>
<g clip-path="url(#clip4_747_133)">
<g filter="url(#filter12_f_747_133)">
<rect x="0.5" y="330.35" width="4" height="68" rx="0.5" fill="#565553"/>
<rect x="0.25" y="330.1" width="4.5" height="68.5" rx="0.75" stroke="black" stroke-width="0.5"/>
</g>
<g filter="url(#filter13_f_747_133)">
<rect x="1.33192" y="331.182" width="2.33615" height="66.3362" rx="0.268077" stroke="#31302E" stroke-width="0.336154"/>
</g>
<g filter="url(#filter14_f_747_133)">
<rect x="1.5" y="331.35" width="3" height="7" rx="0.1" fill="url(#paint6_linear_747_133)"/>
</g>
</g>
<g clip-path="url(#clip5_747_133)">
<rect x="3.5" y="0.349609" width="431" height="888" rx="70" fill="black"/>
<rect x="7.5" y="4.34875" width="423" height="880" rx="68" stroke="#565553" stroke-width="4"/>
<rect x="4.5" y="1.34875" width="429" height="886" rx="69" stroke="#3F3E3B" stroke-width="2"/>
<g opacity="0.9" filter="url(#filter15_f_747_133)">
<rect x="5.5" y="2.34875" width="427" height="884" rx="69" stroke="#31302E" stroke-width="2"/>
</g>
<g opacity="0.8" filter="url(#filter16_f_747_133)">
<rect x="11" y="7.84875" width="416" height="873" rx="64.5" stroke="#646464"/>
</g>
<rect x="157.5" y="32.3496" width="124" height="36" rx="18" fill="black"/>
<g opacity="0.75">
<rect x="247.836" y="41.6858" width="17.3277" height="17.3277" rx="8.66385" fill="#121212"/>
<rect x="247.836" y="41.6858" width="17.3277" height="17.3277" rx="8.66385" stroke="#0E0E0E" stroke-width="0.672308"/>
<g filter="url(#filter17_f_747_133)">
<path d="M254.5 46.3496C251.089 47.2385 249.952 52.3496 254.5 54.3496C253.363 51.6829 253.363 49.2385 254.5 46.3496Z" fill="#50A99A"/>
</g>
<g filter="url(#filter18_f_747_133)">
<path d="M253.75 48.1958C252.044 48.6744 251.476 51.4266 253.75 52.5035C253.181 51.0676 253.181 49.7514 253.75 48.1958Z" fill="#50A99A"/>
</g>
<g opacity="0.4" filter="url(#filter19_f_747_133)">
<path d="M254.454 47.5009C252.992 47.6967 251.924 51.292 253.69 52.2466C253.065 50.9646 253.377 48.4005 254.454 47.5009Z" fill="#D0FFF7"/>
</g>
<g filter="url(#filter20_f_747_133)">
<path d="M257.5 46.3496C260.911 47.2385 262.048 52.3496 257.5 54.3496C258.637 51.6829 258.637 49.2385 257.5 46.3496Z" fill="#3E518C"/>
</g>
<g filter="url(#filter21_f_747_133)">
<path d="M258.25 48.1953C259.956 48.6739 260.524 51.4261 258.25 52.503C258.819 51.0671 258.819 49.7509 258.25 48.1953Z" fill="#26408D"/>
</g>
<g opacity="0.5" filter="url(#filter22_f_747_133)">
<path d="M257.546 47.5009C259.008 47.6967 260.076 51.292 258.31 52.2466C258.935 50.9646 258.623 48.4005 257.546 47.5009Z" fill="#0D308C"/>
</g>
</g>
<g style="mix-blend-mode:screen" opacity="0.75">
<rect x="427.5" y="90.3496" width="7" height="6" fill="#7C7C7C"/>
</g>
<g style="mix-blend-mode:screen" opacity="0.75">
<rect x="3.5" y="90.3496" width="7" height="5" fill="#7C7C7C"/>
</g>
<g style="mix-blend-mode:screen" opacity="0.75">
<rect x="345.5" y="0.349609" width="6" height="7" fill="#7C7C7C"/>
</g>
</g>
</g>
<defs>
<filter id="filter0_f_747_133" x="432.664" y="267.513" width="5.67231" height="107.672" filterUnits="userSpaceOnUse" color-interpolation-filters="sRGB">
<feFlood flood-opacity="0" result="BackgroundImageFix"/>
<feBlend mode="normal" in="SourceGraphic" in2="BackgroundImageFix" result="shape"/>
<feGaussianBlur stdDeviation="0.168077" result="effect1_foregroundBlur_747_133"/>
</filter>
<filter id="filter1_f_747_133" x="433.664" y="268.513" width="3.67231" height="105.672" filterUnits="userSpaceOnUse" color-interpolation-filters="sRGB">
<feFlood flood-opacity="0" result="BackgroundImageFix"/>
<feBlend mode="normal" in="SourceGraphic" in2="BackgroundImageFix" result="shape"/>
<feGaussianBlur stdDeviation="0.168077" result="effect1_foregroundBlur_747_133"/>
</filter>
<filter id="filter2_f_747_133" x="434.164" y="269.013" width="2.67231" height="7.67231" filterUnits="userSpaceOnUse" color-interpolation-filters="sRGB">
<feFlood flood-opacity="0" result="BackgroundImageFix"/>
<feBlend mode="normal" in="SourceGraphic" in2="BackgroundImageFix" result="shape"/>
<feGaussianBlur stdDeviation="0.168077" result="effect1_foregroundBlur_747_133"/>
</filter>
<filter id="filter3_f_747_133" x="434.164" y="366.013" width="2.67231" height="7.67231" filterUnits="userSpaceOnUse" color-interpolation-filters="sRGB">
<feFlood flood-opacity="0" result="BackgroundImageFix"/>
<feBlend mode="normal" in="SourceGraphic" in2="BackgroundImageFix" result="shape"/>
<feGaussianBlur stdDeviation="0.168077" result="effect1_foregroundBlur_747_133"/>
</filter>
<filter id="filter4_f_747_133" x="-0.336154" y="180.513" width="5.67231" height="32.6723" filterUnits="userSpaceOnUse" color-interpolation-filters="sRGB">
<feFlood flood-opacity="0" result="BackgroundImageFix"/>
<feBlend mode="normal" in="SourceGraphic" in2="BackgroundImageFix" result="shape"/>
<feGaussianBlur stdDeviation="0.168077" result="effect1_foregroundBlur_747_133"/>
</filter>
<filter id="filter5_f_747_133" x="0.663846" y="181.663" width="3.67231" height="30.6723" filterUnits="userSpaceOnUse" color-interpolation-filters="sRGB">
<feFlood flood-opacity="0" result="BackgroundImageFix"/>
<feBlend mode="normal" in="SourceGraphic" in2="BackgroundImageFix" result="shape"/>
<feGaussianBlur stdDeviation="0.168077" result="effect1_foregroundBlur_747_133"/>
</filter>
<filter id="filter6_f_747_133" x="1.16385" y="182.163" width="2.67231" height="4.67231" filterUnits="userSpaceOnUse" color-interpolation-filters="sRGB">
<feFlood flood-opacity="0" result="BackgroundImageFix"/>
<feBlend mode="normal" in="SourceGraphic" in2="BackgroundImageFix" result="shape"/>
<feGaussianBlur stdDeviation="0.168077" result="effect1_foregroundBlur_747_133"/>
</filter>
<filter id="filter7_f_747_133" x="1.16385" y="207.163" width="2.67231" height="4.67231" filterUnits="userSpaceOnUse" color-interpolation-filters="sRGB">
<feFlood flood-opacity="0" result="BackgroundImageFix"/>
<feBlend mode="normal" in="SourceGraphic" in2="BackgroundImageFix" result="shape"/>
<feGaussianBlur stdDeviation="0.168077" result="effect1_foregroundBlur_747_133"/>
</filter>
<filter id="filter8_f_747_133" x="-0.336154" y="243.513" width="5.67231" height="69.6723" filterUnits="userSpaceOnUse" color-interpolation-filters="sRGB">
<feFlood flood-opacity="0" result="BackgroundImageFix"/>
<feBlend mode="normal" in="SourceGraphic" in2="BackgroundImageFix" result="shape"/>
<feGaussianBlur stdDeviation="0.168077" result="effect1_foregroundBlur_747_133"/>
</filter>
<filter id="filter9_f_747_133" x="0.663846" y="244.513" width="3.67231" height="67.6723" filterUnits="userSpaceOnUse" color-interpolation-filters="sRGB">
<feFlood flood-opacity="0" result="BackgroundImageFix"/>
<feBlend mode="normal" in="SourceGraphic" in2="BackgroundImageFix" result="shape"/>
<feGaussianBlur stdDeviation="0.168077" result="effect1_foregroundBlur_747_133"/>
</filter>
<filter id="filter10_f_747_133" x="1.16385" y="245.013" width="3.67231" height="7.67231" filterUnits="userSpaceOnUse" color-interpolation-filters="sRGB">
<feFlood flood-opacity="0" result="BackgroundImageFix"/>
<feBlend mode="normal" in="SourceGraphic" in2="BackgroundImageFix" result="shape"/>
<feGaussianBlur stdDeviation="0.168077" result="effect1_foregroundBlur_747_133"/>
</filter>
<filter id="filter11_f_747_133" x="1.16385" y="304.013" width="3.67231" height="7.67231" filterUnits="userSpaceOnUse" color-interpolation-filters="sRGB">
<feFlood flood-opacity="0" result="BackgroundImageFix"/>
<feBlend mode="normal" in="SourceGraphic" in2="BackgroundImageFix" result="shape"/>
<feGaussianBlur stdDeviation="0.168077" result="effect1_foregroundBlur_747_133"/>
</filter>
<filter id="filter12_f_747_133" x="-0.336154" y="329.513" width="5.67231" height="69.6723" filterUnits="userSpaceOnUse" color-interpolation-filters="sRGB">
<feFlood flood-opacity="0" result="BackgroundImageFix"/>
<feBlend mode="normal" in="SourceGraphic" in2="BackgroundImageFix" result="shape"/>
<feGaussianBlur stdDeviation="0.168077" result="effect1_foregroundBlur_747_133"/>
</filter>
<filter id="filter13_f_747_133" x="0.827665" y="330.677" width="3.34467" height="67.3447" filterUnits="userSpaceOnUse" color-interpolation-filters="sRGB">
<feFlood flood-opacity="0" result="BackgroundImageFix"/>
<feBlend mode="normal" in="SourceGraphic" in2="BackgroundImageFix" result="shape"/>
<feGaussianBlur stdDeviation="0.168077" result="effect1_foregroundBlur_747_133"/>
</filter>
<filter id="filter14_f_747_133" x="1.16385" y="331.013" width="3.67231" height="7.67231" filterUnits="userSpaceOnUse" color-interpolation-filters="sRGB">
<feFlood flood-opacity="0" result="BackgroundImageFix"/>
<feBlend mode="normal" in="SourceGraphic" in2="BackgroundImageFix" result="shape"/>
<feGaussianBlur stdDeviation="0.168077" result="effect1_foregroundBlur_747_133"/>
</filter>
<filter id="filter15_f_747_133" x="3.49154" y="0.340293" width="431.017" height="888.017" filterUnits="userSpaceOnUse" color-interpolation-filters="sRGB">
<feFlood flood-opacity="0" result="BackgroundImageFix"/>
<feBlend mode="normal" in="SourceGraphic" in2="BackgroundImageFix" result="shape"/>
<feGaussianBlur stdDeviation="0.504231" result="effect1_foregroundBlur_747_133"/>
</filter>
<filter id="filter16_f_747_133" x="9.82769" y="6.67645" width="418.345" height="875.345" filterUnits="userSpaceOnUse" color-interpolation-filters="sRGB">
<feFlood flood-opacity="0" result="BackgroundImageFix"/>
<feBlend mode="normal" in="SourceGraphic" in2="BackgroundImageFix" result="shape"/>
<feGaussianBlur stdDeviation="0.336154" result="effect1_foregroundBlur_747_133"/>
</filter>
<filter id="filter17_f_747_133" x="249.627" y="44.4768" width="6.74571" height="11.7457" filterUnits="userSpaceOnUse" color-interpolation-filters="sRGB">
<feFlood flood-opacity="0" result="BackgroundImageFix"/>
<feBlend mode="normal" in="SourceGraphic" in2="BackgroundImageFix" result="shape"/>
<feGaussianBlur stdDeviation="0.936429" result="effect1_foregroundBlur_747_133"/>
</filter>
<filter id="filter18_f_747_133" x="250.377" y="46.3229" width="5.24571" height="8.05339" filterUnits="userSpaceOnUse" color-interpolation-filters="sRGB">
<feFlood flood-opacity="0" result="BackgroundImageFix"/>
<feBlend mode="normal" in="SourceGraphic" in2="BackgroundImageFix" result="shape"/>
<feGaussianBlur stdDeviation="0.936429" result="effect1_foregroundBlur_747_133"/>
</filter>
<filter id="filter19_f_747_133" x="251.522" y="46.2523" width="4.18098" height="7.24293" filterUnits="userSpaceOnUse" color-interpolation-filters="sRGB">
<feFlood flood-opacity="0" result="BackgroundImageFix"/>
<feBlend mode="normal" in="SourceGraphic" in2="BackgroundImageFix" result="shape"/>
<feGaussianBlur stdDeviation="0.624286" result="effect1_foregroundBlur_747_133"/>
</filter>
<filter id="filter20_f_747_133" x="255.627" y="44.4768" width="6.74571" height="11.7457" filterUnits="userSpaceOnUse" color-interpolation-filters="sRGB">
<feFlood flood-opacity="0" result="BackgroundImageFix"/>
<feBlend mode="normal" in="SourceGraphic" in2="BackgroundImageFix" result="shape"/>
<feGaussianBlur stdDeviation="0.936429" result="effect1_foregroundBlur_747_133"/>
</filter>
<filter id="filter21_f_747_133" x="256.377" y="46.3225" width="5.24571" height="8.05339" filterUnits="userSpaceOnUse" color-interpolation-filters="sRGB">
<feFlood flood-opacity="0" result="BackgroundImageFix"/>
<feBlend mode="normal" in="SourceGraphic" in2="BackgroundImageFix" result="shape"/>
<feGaussianBlur stdDeviation="0.936429" result="effect1_foregroundBlur_747_133"/>
</filter>
<filter id="filter22_f_747_133" x="256.297" y="46.2523" width="4.18098" height="7.24293" filterUnits="userSpaceOnUse" color-interpolation-filters="sRGB">
<feFlood flood-opacity="0" result="BackgroundImageFix"/>
<feBlend mode="normal" in="SourceGraphic" in2="BackgroundImageFix" result="shape"/>
<feGaussianBlur stdDeviation="0.624286" result="effect1_foregroundBlur_747_133"/>
</filter>
<linearGradient id="paint0_linear_747_133" x1="1" y1="0" x2="1" y2="7" gradientUnits="userSpaceOnUse">
<stop stop-color="#2D2E2A"/>
<stop offset="0.760033" stop-color="#565553"/>
</linearGradient>
<linearGradient id="paint1_linear_747_133" x1="437.5" y1="373.35" x2="437.5" y2="380.35" gradientUnits="userSpaceOnUse">
<stop stop-color="#2D2E2A"/>
<stop offset="0.760033" stop-color="#565553"/>
</linearGradient>
<linearGradient id="paint2_linear_747_133" x1="2.5" y1="182.499" x2="2.5" y2="186.499" gradientUnits="userSpaceOnUse">
<stop stop-color="#2D2E2A"/>
<stop offset="0.760033" stop-color="#565553"/>
</linearGradient>
<linearGradient id="paint3_linear_747_133" x1="1" y1="0" x2="1" y2="4" gradientUnits="userSpaceOnUse">
<stop stop-color="#2D2E2A"/>
<stop offset="0.760033" stop-color="#565553"/>
</linearGradient>
<linearGradient id="paint4_linear_747_133" x1="3" y1="245.35" x2="3" y2="252.35" gradientUnits="userSpaceOnUse">
<stop stop-color="#2D2E2A"/>
<stop offset="0.760033" stop-color="#565553"/>
</linearGradient>
<linearGradient id="paint5_linear_747_133" x1="1.5" y1="0" x2="1.5" y2="7" gradientUnits="userSpaceOnUse">
<stop stop-color="#2D2E2A"/>
<stop offset="0.760033" stop-color="#565553"/>
</linearGradient>
<linearGradient id="paint6_linear_747_133" x1="3" y1="331.35" x2="3" y2="338.35" gradientUnits="userSpaceOnUse">
<stop stop-color="#2D2E2A"/>
<stop offset="0.760033" stop-color="#565553"/>
</linearGradient>
<clipPath id="clip0_747_133">
<rect width="437" height="888" fill="white" transform="translate(0.5 0.349609)"/>
</clipPath>
<clipPath id="clip1_747_133">
<path d="M437.5 268.85C437.5 268.573 437.276 268.35 437 268.35H434.5V374.35H437C437.276 374.35 437.5 374.126 437.5 373.85V268.85Z" fill="white"/>
</clipPath>
<clipPath id="clip2_747_133">
<path d="M0.5 181.85C0.5 181.573 0.723858 181.35 1 181.35H4.5V212.35H1C0.723858 212.35 0.5 212.126 0.5 211.85V181.85Z" fill="white"/>
</clipPath>
<clipPath id="clip3_747_133">
<path d="M0.5 244.85C0.5 244.573 0.723858 244.35 1 244.35H3.5V312.35H1C0.723858 312.35 0.5 312.126 0.5 311.85V244.85Z" fill="white"/>
</clipPath>
<clipPath id="clip4_747_133">
<path d="M0.5 330.85C0.5 330.573 0.723858 330.35 1 330.35H3.5V398.35H1C0.723858 398.35 0.5 398.126 0.5 397.85V330.85Z" fill="white"/>
</clipPath>
<clipPath id="clip5_747_133">
<rect x="3.5" y="0.349609" width="431" height="888" rx="70" fill="white"/>
</clipPath>
</defs>
</svg>
