<svg width="133" height="38" viewBox="0 0 133 38" fill="none" xmlns="http://www.w3.org/2000/svg">
<path d="M18.3876 8.00251C18.3876 9.20308 17.9874 10.2035 17.1871 11.0039C16.3867 11.8043 15.3862 12.2045 14.1856 12.2045H13.301V26.3269C13.301 27.5275 12.9008 28.5174 12.1004 29.2968C11.3211 30.0971 10.3312 30.4973 9.13062 30.4973C7.93005 30.4973 6.92958 30.0971 6.12921 29.2968C5.32883 28.5174 4.92864 27.5275 4.92864 26.3269V12.2045H4.20198C3.00142 12.2045 2.00094 11.8043 1.20057 11.0039C0.400189 10.2035 0 9.20308 0 8.00251C0 7.45489 0.0947815 6.92832 0.284345 6.42282C0.0947815 5.91732 0 5.39075 0 4.84313C0 3.64256 0.400189 2.65262 1.20057 1.87331C2.00094 1.07293 3.00142 0.672742 4.20198 0.672742H14.1856C15.3862 0.672742 16.3867 1.07293 17.1871 1.87331C17.9874 2.65262 18.3876 3.64256 18.3876 4.84313C18.3876 5.41182 18.2928 5.93838 18.1033 6.42282C18.2928 6.92832 18.3876 7.45489 18.3876 8.00251ZM16.334 4.84313C16.334 4.21125 16.1339 3.70575 15.7337 3.32662C15.3335 2.92643 14.8175 2.72634 14.1856 2.72634H4.20198C3.5701 2.72634 3.05407 2.92643 2.65388 3.32662C2.25369 3.70575 2.0536 4.21125 2.0536 4.84313C2.0536 5.475 2.25369 5.99104 2.65388 6.39123C3.05407 6.79141 3.5701 6.99151 4.20198 6.99151H6.98224V23.1676C6.98224 23.7994 7.18233 24.3155 7.58252 24.7157C7.98271 25.0948 8.49874 25.2843 9.13062 25.2843C9.7625 25.2843 10.268 25.0948 10.6471 24.7157C11.0473 24.3155 11.2474 23.7994 11.2474 23.1676V6.99151H14.1856C14.8175 6.99151 15.3335 6.79141 15.7337 6.39123C16.1339 5.99104 16.334 5.475 16.334 4.84313ZM30.2027 14.4793C30.2027 15.7219 29.8236 16.7119 29.0653 17.4491C28.3282 18.1652 27.3593 18.5759 26.1587 18.6812C25.7375 18.7023 25.5268 18.8603 25.5268 19.1551V26.3269C25.5268 27.5275 25.1266 28.5174 24.3263 29.2968C23.5259 30.0971 22.5254 30.4973 21.3249 30.4973C20.1243 30.4973 19.1238 30.0971 18.3234 29.2968C17.5441 28.5174 17.1545 27.5275 17.1545 26.3269V15.9958C17.1545 13.5104 18.0075 11.4146 19.7136 9.70858C21.4407 8.00251 23.547 7.14948 26.0323 7.14948C27.2118 7.14948 28.2018 7.54967 29.0022 8.35005C29.8025 9.15042 30.2027 10.1404 30.2027 11.3199C30.2027 11.9096 30.1079 12.4467 29.9184 12.9312C30.1079 13.4156 30.2027 13.9316 30.2027 14.4793ZM28.1491 11.3199C28.1491 10.7091 27.949 10.2036 27.5488 9.80336C27.1487 9.40317 26.6432 9.20308 26.0323 9.20308C24.0946 9.20308 22.4728 9.85602 21.1669 11.1619C19.861 12.4467 19.2081 14.058 19.2081 15.9958V23.1676C19.2081 23.7994 19.3976 24.3155 19.7768 24.7157C20.1769 25.0948 20.693 25.2843 21.3249 25.2843C21.9567 25.2843 22.4728 25.0948 22.873 24.7157C23.2731 24.3155 23.4732 23.7994 23.4732 23.1676V15.9958C23.4732 15.2796 23.7049 14.7004 24.1683 14.2581C24.6527 13.7947 25.253 13.5314 25.9692 13.4682C27.4225 13.3419 28.1491 12.6257 28.1491 11.3199ZM37.7559 8.22367C37.7559 9.02405 37.5768 9.76124 37.2188 10.4352C37.2609 10.7091 37.282 11.0039 37.282 11.3199V26.3269C37.282 27.5275 36.8712 28.5174 36.0498 29.2968C35.2494 30.0971 34.2595 30.4973 33.08 30.4973C31.8794 30.4973 30.8789 30.0971 30.0786 29.2968C29.2993 28.5174 28.9096 27.5275 28.9096 26.3269V11.3199C28.9096 11.025 28.9307 10.7406 28.9728 10.4668C28.5937 9.77177 28.4041 9.02405 28.4041 8.22367C28.4041 7.67604 28.4989 7.14948 28.6884 6.64398C28.4989 6.13848 28.4041 5.61191 28.4041 5.06428C28.4041 3.77947 28.8569 2.68422 29.7626 1.77853C30.6894 0.851774 31.7952 0.388397 33.08 0.388397C34.3648 0.388397 35.4601 0.851774 36.3657 1.77853C37.2925 2.68422 37.7559 3.77947 37.7559 5.06428C37.7559 5.61191 37.6611 6.13848 37.4715 6.64398C37.6611 7.14948 37.7559 7.67604 37.7559 8.22367ZM35.7023 5.06428C35.7023 4.34816 35.439 3.73734 34.9124 3.23184C34.4069 2.70528 33.7961 2.442 33.08 2.442C32.3639 2.442 31.7425 2.70528 31.2159 3.23184C30.7104 3.73734 30.4577 4.34816 30.4577 5.06428C30.4577 5.78041 30.7104 6.40176 31.2159 6.92832C31.7425 7.43382 32.3639 7.68657 33.08 7.68657C33.7961 7.68657 34.4069 7.43382 34.9124 6.92832C35.439 6.40176 35.7023 5.78041 35.7023 5.06428ZM35.2284 23.1676V11.3199C35.2284 9.90867 34.5122 9.20308 33.08 9.20308C32.4481 9.20308 31.9321 9.40317 31.5319 9.80336C31.1528 10.1825 30.9632 10.688 30.9632 11.3199V23.1676C30.9632 23.7994 31.1528 24.3155 31.5319 24.7157C31.9321 25.0948 32.4481 25.2843 33.08 25.2843C33.7119 25.2843 34.2279 25.0948 34.6281 24.7157C35.0283 24.3155 35.2284 23.7994 35.2284 23.1676ZM56.5044 20.3873C56.5044 23.2097 55.5144 25.6003 53.5345 27.5591C51.5757 29.5179 49.1851 30.4973 46.3627 30.4973C43.5193 30.4973 41.1182 29.5179 39.1593 27.5591C37.2216 25.6213 36.2527 23.2307 36.2527 20.3873V4.84313C36.2527 3.66363 36.6529 2.67368 37.4533 1.87331C38.2536 1.07293 39.2436 0.672742 40.4231 0.672742C41.6237 0.672742 42.6241 1.07293 43.4245 1.87331C44.2249 2.65262 44.6251 3.64256 44.6251 4.84313V7.43382C45.1727 7.20213 45.7519 7.08629 46.3627 7.08629C49.2272 7.08629 51.6284 8.0657 53.5661 10.0245C55.5249 11.9623 56.5044 14.3634 56.5044 17.2279C56.5044 17.7755 56.4622 18.3021 56.378 18.8076C56.4622 19.3342 56.5044 19.8607 56.5044 20.3873ZM54.4508 17.2279C54.4508 14.9321 53.6714 13.0154 52.1128 11.4778C50.5752 9.91921 48.6585 9.13989 46.3627 9.13989C45.7309 9.13989 45.2148 9.33999 44.8146 9.74017C44.4355 10.1404 44.2459 10.6564 44.2459 11.2883C44.2459 11.9201 44.4355 12.4362 44.8146 12.8364C45.2148 13.2155 45.7309 13.4051 46.3627 13.4051C47.4159 13.4051 48.311 13.7842 49.0482 14.5424C49.8065 15.2796 50.1856 16.1748 50.1856 17.2279C50.1856 18.281 49.8065 19.1762 49.0482 19.9134C48.311 20.6506 47.4159 21.0192 46.3627 21.0192C45.3096 21.0192 44.4144 20.6506 43.6773 19.9134C42.9401 19.1762 42.5715 18.281 42.5715 17.2279V4.84313C42.5715 4.21125 42.3714 3.70575 41.9712 3.32662C41.571 2.92643 41.055 2.72634 40.4231 2.72634C39.8123 2.72634 39.3068 2.92643 38.9066 3.32662C38.5064 3.72681 38.3063 4.23231 38.3063 4.84313V17.2279C38.3063 19.5027 39.0751 21.4194 40.6127 22.978C42.1713 24.5156 44.088 25.2843 46.3627 25.2843C48.6375 25.2843 50.5542 24.5156 52.1128 22.978C53.6714 21.4194 54.4508 19.5027 54.4508 17.2279ZM47.1526 18.8076C46.9209 18.7023 46.5839 18.6286 46.1416 18.5864C45.6361 18.5443 45.2885 18.4917 45.099 18.4285C45.436 18.7865 45.8572 18.9656 46.3627 18.9656C46.6365 18.9656 46.8998 18.9129 47.1526 18.8076ZM74.0222 16.2801C74.0222 17.607 73.4851 18.7023 72.4109 19.5659C72.2424 19.7344 71.9475 20.0398 71.5262 20.4821C72.1581 21.2403 72.4741 22.146 72.4741 23.1992C72.4741 23.7468 72.3793 24.2733 72.1897 24.7788C72.3793 25.2843 72.4741 25.8109 72.4741 26.3585C72.4741 27.5591 72.0739 28.5596 71.2735 29.36C70.4942 30.1603 69.5042 30.5605 68.3037 30.5605H65.4918C62.6484 30.5605 60.2472 29.5811 58.2884 27.6223C56.3507 25.6845 55.3818 23.2834 55.3818 20.4189C55.3818 19.8923 55.4239 19.3658 55.5082 18.8392C55.4239 18.3126 55.3818 17.7861 55.3818 17.2595C55.3818 14.395 56.3507 11.9939 58.2884 10.0561C60.2262 8.11836 62.6273 7.14948 65.4918 7.14948C67.3664 7.14948 69.1883 7.66551 70.9575 8.69758C73.0006 9.87708 74.0222 11.3515 74.0222 13.1207C74.0222 13.6894 73.9168 14.216 73.7062 14.7004C73.9168 15.2059 74.0222 15.7325 74.0222 16.2801ZM71.9686 13.1207C71.9686 12.5942 71.7579 12.1097 71.3367 11.6674C69.7359 10.0245 67.7876 9.20308 65.4918 9.20308C63.196 9.20308 61.2793 9.97186 59.7417 11.5094C58.2042 13.047 57.4354 14.9637 57.4354 17.2595C57.4354 19.5553 58.2042 21.4826 59.7417 23.0412C61.2793 24.5787 63.196 25.3475 65.4918 25.3475H68.3037C68.9355 25.3475 69.441 25.1474 69.8202 24.7472C70.2204 24.3471 70.4205 23.831 70.4205 23.1992C70.4205 22.5673 70.2204 22.0618 69.8202 21.6826C69.441 21.2825 68.9355 21.0824 68.3037 21.0824H65.4918C64.4387 21.0824 63.5435 20.7138 62.8063 19.9766C62.0691 19.2183 61.7006 18.3126 61.7006 17.2595C61.7006 16.2064 62.0691 15.3112 62.8063 14.574C63.5435 13.8368 64.4387 13.4682 65.4918 13.4682C65.7656 13.4682 66.0394 13.4893 66.3133 13.5314L64.0385 15.7746C63.5751 16.238 63.3434 16.7329 63.3434 17.2595C63.3434 17.8493 63.5541 18.3653 63.9753 18.8076C64.4176 19.2499 64.9337 19.4711 65.5234 19.4711C66.05 19.4711 66.5449 19.2499 67.0083 18.8076L71.0523 14.8584C71.6631 14.395 71.9686 13.8158 71.9686 13.1207ZM88.9246 17.8282C88.9246 19.0288 88.5244 20.0292 87.724 20.8296C86.9236 21.63 85.9232 22.0302 84.7226 22.0302H81.2789V26.3269C81.2789 27.5275 80.8787 28.5174 80.0783 29.2968C79.2779 30.0971 78.2774 30.4973 77.0769 30.4973C75.8763 30.4973 74.8758 30.0971 74.0755 29.2968C73.2962 28.5174 72.9065 27.5275 72.9065 26.3269V9.55061C72.9065 7.04417 73.7595 4.93791 75.4656 3.23184C77.1717 1.52577 79.2779 0.672742 81.7844 0.672742H84.7226C85.9232 0.672742 86.9236 1.07293 87.724 1.87331C88.5244 2.65262 88.9246 3.64256 88.9246 4.84313C88.9246 5.39075 88.8298 5.91732 88.6402 6.42282C88.8298 6.92832 88.9246 7.45489 88.9246 8.00251C88.9246 9.4137 88.398 10.53 87.3449 11.3515C88.398 12.1518 88.9246 13.2576 88.9246 14.6688C88.9246 15.2375 88.8298 15.7641 88.6402 16.2485C88.8298 16.754 88.9246 17.2806 88.9246 17.8282ZM86.871 14.6688C86.871 14.0369 86.6709 13.5314 86.2707 13.1523C85.8705 12.7521 85.3545 12.552 84.7226 12.552H79.2253V9.55061C79.2253 8.83448 79.4675 8.2342 79.9519 7.74976C80.4574 7.24426 81.0682 6.99151 81.7844 6.99151H84.7226C85.3545 6.99151 85.8705 6.79141 86.2707 6.39123C86.6709 5.99104 86.871 5.475 86.871 4.84313C86.871 4.21125 86.6709 3.70575 86.2707 3.32662C85.8705 2.92643 85.3545 2.72634 84.7226 2.72634H81.7844C79.8255 2.72634 78.1932 3.37928 76.8873 4.68516C75.6025 5.96998 74.9601 7.59179 74.9601 9.55061V23.1676C74.9601 23.7994 75.1497 24.3155 75.5288 24.7157C75.929 25.0948 76.445 25.2843 77.0769 25.2843C77.7088 25.2843 78.2248 25.0948 78.625 24.7157C79.0252 24.3155 79.2253 23.7994 79.2253 23.1676V16.8172H84.7226C85.3545 16.8172 85.8705 16.6171 86.2707 16.2169C86.6709 15.8167 86.871 15.3007 86.871 14.6688ZM96.7475 8.22367C96.7475 9.02405 96.5685 9.76124 96.2104 10.4352C96.2525 10.7091 96.2736 11.0039 96.2736 11.3199V26.3269C96.2736 27.5275 95.8629 28.5174 95.0414 29.2968C94.2411 30.0971 93.2511 30.4973 92.0716 30.4973C90.8711 30.4973 89.8706 30.0971 89.0702 29.2968C88.2909 28.5174 87.9012 27.5275 87.9012 26.3269V11.3199C87.9012 11.025 87.9223 10.7406 87.9644 10.4668C87.5853 9.77177 87.3957 9.02405 87.3957 8.22367C87.3957 7.67604 87.4905 7.14948 87.6801 6.64398C87.4905 6.13848 87.3957 5.61191 87.3957 5.06428C87.3957 3.77947 87.8486 2.68422 88.7543 1.77853C89.681 0.851774 90.7868 0.388397 92.0716 0.388397C93.3564 0.388397 94.4517 0.851774 95.3574 1.77853C96.2841 2.68422 96.7475 3.77947 96.7475 5.06428C96.7475 5.61191 96.6527 6.13848 96.4632 6.64398C96.6527 7.14948 96.7475 7.67604 96.7475 8.22367ZM94.6939 5.06428C94.6939 4.34816 94.4306 3.73734 93.9041 3.23184C93.3986 2.70528 92.7877 2.442 92.0716 2.442C91.3555 2.442 90.7341 2.70528 90.2076 3.23184C89.7021 3.73734 89.4493 4.34816 89.4493 5.06428C89.4493 5.78041 89.7021 6.40176 90.2076 6.92832C90.7341 7.43382 91.3555 7.68657 92.0716 7.68657C92.7877 7.68657 93.3986 7.43382 93.9041 6.92832C94.4306 6.40176 94.6939 5.78041 94.6939 5.06428ZM94.22 23.1676V11.3199C94.22 9.90867 93.5039 9.20308 92.0716 9.20308C91.4397 9.20308 90.9237 9.40317 90.5235 9.80336C90.1444 10.1825 89.9548 10.688 89.9548 11.3199V23.1676C89.9548 23.7994 90.1444 24.3155 90.5235 24.7157C90.9237 25.0948 91.4397 25.2843 92.0716 25.2843C92.7035 25.2843 93.2195 25.0948 93.6197 24.7157C94.0199 24.3155 94.22 23.7994 94.22 23.1676ZM117.834 33.2776C117.834 34.4782 117.423 35.4681 116.602 36.2474C115.801 37.0478 114.811 37.448 113.632 37.448C111.083 37.448 108.946 36.6055 107.218 34.9205C105.491 33.2355 104.628 31.1187 104.628 28.5701V27.0852L104.596 19.1551C104.596 18.8392 104.438 18.6812 104.122 18.6812C103.785 18.6812 103.617 18.8392 103.617 19.1551V26.3269C103.617 27.5275 103.217 28.5174 102.416 29.2968C101.616 30.0971 100.615 30.4973 99.4147 30.4973C98.2141 30.4973 97.2137 30.0971 96.4133 29.2968C95.634 28.5174 95.2443 27.5275 95.2443 26.3269V15.9958C95.2443 13.5104 96.0974 11.4146 97.8034 9.70858C99.5306 8.00251 101.637 7.14948 104.122 7.14948C106.608 7.14948 108.703 8.00251 110.409 9.70858C112.136 11.4146 113 13.5104 113 15.9958V25.4107C113 25.7477 113.169 25.9162 113.506 25.9162C114.748 25.9162 115.78 26.3059 116.602 27.0852C117.423 27.8856 117.834 28.8966 117.834 30.1182C117.834 30.6869 117.739 31.2135 117.55 31.6979C117.739 32.1823 117.834 32.7089 117.834 33.2776ZM115.78 30.1182C115.78 29.4863 115.58 28.9703 115.18 28.5701C114.78 28.1699 114.264 27.9698 113.632 27.9698H113.506C112.789 27.9698 112.179 27.7171 111.673 27.2116C111.189 26.7271 110.946 26.1268 110.946 25.4107V15.9958C110.946 14.058 110.294 12.4467 108.988 11.1619C107.682 9.85602 106.06 9.20308 104.122 9.20308C102.184 9.20308 100.563 9.85602 99.2567 11.1619C97.9509 12.4467 97.2979 14.058 97.2979 15.9958V23.1676C97.2979 23.7994 97.4875 24.3155 97.8666 24.7157C98.2668 25.0948 98.7828 25.2843 99.4147 25.2843C100.047 25.2843 100.563 25.0948 100.963 24.7157C101.363 24.3155 101.563 23.7994 101.563 23.1676V15.9958C101.563 15.2796 101.805 14.6793 102.29 14.1949C102.795 13.7105 103.406 13.4682 104.122 13.4682C104.817 13.4682 105.407 13.721 105.891 14.2265C106.397 14.7109 106.65 15.3007 106.65 15.9958L106.681 25.4107C106.681 27.3695 107.324 28.9914 108.609 30.2762C109.914 31.5821 111.547 32.235 113.506 32.235H113.632C114.264 32.235 114.78 32.0349 115.18 31.6347C115.58 31.2556 115.78 30.7501 115.78 30.1182ZM132.157 20.3873C132.157 23.2097 131.167 25.6003 129.187 27.5591C127.228 29.5179 124.838 30.4973 122.015 30.4973C119.172 30.4973 116.771 29.5179 114.812 27.5591C112.874 25.6213 111.905 23.2307 111.905 20.3873C111.905 19.8607 111.947 19.3342 112.032 18.8076C111.947 18.281 111.905 17.7545 111.905 17.2279C111.905 14.3634 112.874 11.9623 114.812 10.0245C116.75 8.0657 119.151 7.08629 122.015 7.08629C122.647 7.08629 123.237 7.20213 123.784 7.43382V4.84313C123.784 3.66363 124.185 2.67368 124.985 1.87331C125.785 1.07293 126.775 0.672742 127.955 0.672742C129.155 0.672742 130.156 1.07293 130.956 1.87331C131.757 2.65262 132.157 3.64256 132.157 4.84313V20.3873ZM130.103 17.2279V4.84313C130.103 4.21125 129.903 3.70575 129.503 3.32662C129.103 2.92643 128.587 2.72634 127.955 2.72634C127.344 2.72634 126.839 2.92643 126.438 3.32662C126.038 3.72681 125.838 4.23231 125.838 4.84313V17.2279C125.838 18.281 125.459 19.1762 124.701 19.9134C123.963 20.6506 123.068 21.0192 122.015 21.0192C120.962 21.0192 120.067 20.6506 119.33 19.9134C118.593 19.1762 118.224 18.281 118.224 17.2279C118.224 16.1748 118.593 15.2796 119.33 14.5424C120.067 13.7842 120.962 13.4051 122.015 13.4051C122.647 13.4051 123.163 13.2155 123.563 12.8364C123.963 12.4362 124.164 11.9201 124.164 11.2883C124.164 10.6564 123.963 10.1404 123.563 9.74017C123.163 9.33999 122.647 9.13989 122.015 9.13989C119.719 9.13989 117.803 9.91921 116.265 11.4778C114.728 13.0154 113.959 14.9321 113.959 17.2279C113.959 19.5027 114.728 21.4194 116.265 22.978C117.824 24.5156 119.74 25.2843 122.015 25.2843C124.29 25.2843 126.207 24.5156 127.765 22.978C129.324 21.4194 130.103 19.5027 130.103 17.2279ZM123.279 18.4285C122.794 18.4495 122.12 18.5759 121.257 18.8076C121.489 18.9129 121.741 18.9656 122.015 18.9656C122.521 18.9656 122.942 18.7865 123.279 18.4285Z" fill="#1C1D1E"/>
</svg>
