<svg width="133" height="38" viewBox="0 0 133 38" fill="none" xmlns="http://www.w3.org/2000/svg">
<path d="M18.3876 7.66169C18.3876 8.86226 17.9874 9.86273 17.1871 10.6631C16.3867 11.4635 15.3862 11.8637 14.1856 11.8637H13.301V25.9861C13.301 27.1867 12.9008 28.1766 12.1004 28.9559C11.3211 29.7563 10.3312 30.1565 9.13062 30.1565C7.93005 30.1565 6.92958 29.7563 6.12921 28.9559C5.32883 28.1766 4.92864 27.1867 4.92864 25.9861V11.8637H4.20198C3.00142 11.8637 2.00094 11.4635 1.20057 10.6631C0.400189 9.86273 0 8.86226 0 7.66169C0 7.11407 0.0947815 6.5875 0.284345 6.082C0.0947815 5.5765 0 5.04993 0 4.50231C0 3.30174 0.400189 2.3118 1.20057 1.53249C2.00094 0.732109 3.00142 0.33192 4.20198 0.33192H14.1856C15.3862 0.33192 16.3867 0.732109 17.1871 1.53249C17.9874 2.3118 18.3876 3.30174 18.3876 4.50231C18.3876 5.071 18.2928 5.59756 18.1033 6.082C18.2928 6.5875 18.3876 7.11407 18.3876 7.66169ZM16.334 4.50231C16.334 3.87043 16.1339 3.36493 15.7337 2.9858C15.3335 2.58561 14.8175 2.38552 14.1856 2.38552H4.20198C3.5701 2.38552 3.05407 2.58561 2.65388 2.9858C2.25369 3.36493 2.0536 3.87043 2.0536 4.50231C2.0536 5.13418 2.25369 5.65022 2.65388 6.05041C3.05407 6.45059 3.5701 6.65069 4.20198 6.65069H6.98224V22.8267C6.98224 23.4586 7.18233 23.9746 7.58252 24.3748C7.98271 24.754 8.49874 24.9435 9.13062 24.9435C9.7625 24.9435 10.268 24.754 10.6471 24.3748C11.0473 23.9746 11.2474 23.4586 11.2474 22.8267V6.65069H14.1856C14.8175 6.65069 15.3335 6.45059 15.7337 6.05041C16.1339 5.65022 16.334 5.13418 16.334 4.50231ZM30.2027 14.1384C30.2027 15.3811 29.8236 16.3711 29.0653 17.1083C28.3282 17.8244 27.3593 18.2351 26.1587 18.3404C25.7375 18.3615 25.5268 18.5194 25.5268 18.8143V25.9861C25.5268 27.1867 25.1266 28.1766 24.3263 28.9559C23.5259 29.7563 22.5254 30.1565 21.3249 30.1565C20.1243 30.1565 19.1238 29.7563 18.3234 28.9559C17.5441 28.1766 17.1545 27.1867 17.1545 25.9861V15.6549C17.1545 13.1696 18.0075 11.0738 19.7136 9.36776C21.4407 7.66169 23.547 6.80866 26.0323 6.80866C27.2118 6.80866 28.2018 7.20885 29.0022 8.00922C29.8025 8.8096 30.2027 9.79954 30.2027 10.979C30.2027 11.5688 30.1079 12.1059 29.9184 12.5903C30.1079 13.0748 30.2027 13.5908 30.2027 14.1384ZM28.1491 10.979C28.1491 10.3682 27.949 9.86273 27.5488 9.46254C27.1487 9.06235 26.6432 8.86226 26.0323 8.86226C24.0946 8.86226 22.4728 9.5152 21.1669 10.8211C19.861 12.1059 19.2081 13.7172 19.2081 15.6549V22.8267C19.2081 23.4586 19.3976 23.9746 19.7768 24.3748C20.1769 24.754 20.693 24.9435 21.3249 24.9435C21.9567 24.9435 22.4728 24.754 22.873 24.3748C23.2731 23.9746 23.4732 23.4586 23.4732 22.8267V15.6549C23.4732 14.9388 23.7049 14.3596 24.1683 13.9173C24.6527 13.4539 25.253 13.1906 25.9692 13.1274C27.4225 13.0011 28.1491 12.2849 28.1491 10.979ZM37.7559 7.88285C37.7559 8.68323 37.5768 9.42042 37.2188 10.0944C37.2609 10.3682 37.282 10.6631 37.282 10.979V25.9861C37.282 27.1867 36.8712 28.1766 36.0498 28.9559C35.2494 29.7563 34.2595 30.1565 33.08 30.1565C31.8794 30.1565 30.8789 29.7563 30.0786 28.9559C29.2993 28.1766 28.9096 27.1867 28.9096 25.9861V10.979C28.9096 10.6842 28.9307 10.3998 28.9728 10.126C28.5937 9.43095 28.4041 8.68323 28.4041 7.88285C28.4041 7.33522 28.4989 6.80866 28.6884 6.30316C28.4989 5.79766 28.4041 5.27109 28.4041 4.72346C28.4041 3.43865 28.8569 2.3434 29.7626 1.43771C30.6894 0.510952 31.7952 0.0475757 33.08 0.0475757C34.3648 0.0475757 35.4601 0.510952 36.3657 1.43771C37.2925 2.3434 37.7559 3.43865 37.7559 4.72346C37.7559 5.27109 37.6611 5.79766 37.4715 6.30316C37.6611 6.80866 37.7559 7.33522 37.7559 7.88285ZM35.7023 4.72346C35.7023 4.00734 35.439 3.39652 34.9124 2.89102C34.4069 2.36446 33.7961 2.10118 33.08 2.10118C32.3639 2.10118 31.7425 2.36446 31.2159 2.89102C30.7104 3.39652 30.4577 4.00734 30.4577 4.72346C30.4577 5.43959 30.7104 6.06094 31.2159 6.5875C31.7425 7.093 32.3639 7.34575 33.08 7.34575C33.7961 7.34575 34.4069 7.093 34.9124 6.5875C35.439 6.06094 35.7023 5.43959 35.7023 4.72346ZM35.2284 22.8267V10.979C35.2284 9.56785 34.5122 8.86226 33.08 8.86226C32.4481 8.86226 31.9321 9.06235 31.5319 9.46254C31.1528 9.84167 30.9632 10.3472 30.9632 10.979V22.8267C30.9632 23.4586 31.1528 23.9746 31.5319 24.3748C31.9321 24.754 32.4481 24.9435 33.08 24.9435C33.7119 24.9435 34.2279 24.754 34.6281 24.3748C35.0283 23.9746 35.2284 23.4586 35.2284 22.8267ZM56.5044 20.0465C56.5044 22.8689 55.5144 25.2595 53.5345 27.2183C51.5757 29.1771 49.1851 30.1565 46.3627 30.1565C43.5193 30.1565 41.1182 29.1771 39.1593 27.2183C37.2216 25.2805 36.2527 22.8899 36.2527 20.0465V4.50231C36.2527 3.32281 36.6529 2.33286 37.4533 1.53249C38.2536 0.732109 39.2436 0.33192 40.4231 0.33192C41.6237 0.33192 42.6241 0.732109 43.4245 1.53249C44.2249 2.3118 44.6251 3.30174 44.6251 4.50231V7.093C45.1727 6.86131 45.7519 6.74547 46.3627 6.74547C49.2272 6.74547 51.6284 7.72488 53.5661 9.6837C55.5249 11.6215 56.5044 14.0226 56.5044 16.8871C56.5044 17.4347 56.4622 17.9613 56.378 18.4668C56.4622 18.9934 56.5044 19.5199 56.5044 20.0465ZM54.4508 16.8871C54.4508 14.5913 53.6714 12.6746 52.1128 11.137C50.5752 9.57838 48.6585 8.79907 46.3627 8.79907C45.7309 8.79907 45.2148 8.99916 44.8146 9.39935C44.4355 9.79954 44.2459 10.3156 44.2459 10.9475C44.2459 11.5793 44.4355 12.0954 44.8146 12.4956C45.2148 12.8747 45.7309 13.0642 46.3627 13.0642C47.4159 13.0642 48.311 13.4434 49.0482 14.2016C49.8065 14.9388 50.1856 15.834 50.1856 16.8871C50.1856 17.9402 49.8065 18.8354 49.0482 19.5726C48.311 20.3098 47.4159 20.6784 46.3627 20.6784C45.3096 20.6784 44.4144 20.3098 43.6773 19.5726C42.9401 18.8354 42.5715 17.9402 42.5715 16.8871V4.50231C42.5715 3.87043 42.3714 3.36493 41.9712 2.9858C41.571 2.58561 41.055 2.38552 40.4231 2.38552C39.8123 2.38552 39.3068 2.58561 38.9066 2.9858C38.5064 3.38599 38.3063 3.89149 38.3063 4.50231V16.8871C38.3063 19.1619 39.0751 21.0785 40.6127 22.6372C42.1713 24.1747 44.088 24.9435 46.3627 24.9435C48.6375 24.9435 50.5542 24.1747 52.1128 22.6372C53.6714 21.0785 54.4508 19.1619 54.4508 16.8871ZM47.1526 18.4668C46.9209 18.3615 46.5839 18.2878 46.1416 18.2456C45.6361 18.2035 45.2885 18.1508 45.099 18.0877C45.436 18.4457 45.8572 18.6248 46.3627 18.6248C46.6365 18.6248 46.8998 18.5721 47.1526 18.4668ZM74.0222 15.9393C74.0222 17.2662 73.4851 18.3615 72.4109 19.225C72.2424 19.3935 71.9475 19.6989 71.5262 20.1413C72.1581 20.8995 72.4741 21.8052 72.4741 22.8583C72.4741 23.406 72.3793 23.9325 72.1897 24.438C72.3793 24.9435 72.4741 25.4701 72.4741 26.0177C72.4741 27.2183 72.0739 28.2188 71.2735 29.0191C70.4942 29.8195 69.5042 30.2197 68.3037 30.2197H65.4918C62.6484 30.2197 60.2472 29.2403 58.2884 27.2815C56.3507 25.3437 55.3818 22.9426 55.3818 20.0781C55.3818 19.5515 55.4239 19.0249 55.5082 18.4984C55.4239 17.9718 55.3818 17.4453 55.3818 16.9187C55.3818 14.0542 56.3507 11.653 58.2884 9.71529C60.2262 7.77754 62.6273 6.80866 65.4918 6.80866C67.3664 6.80866 69.1883 7.32469 70.9575 8.35676C73.0006 9.53626 74.0222 11.0106 74.0222 12.7799C74.0222 13.3486 73.9168 13.8751 73.7062 14.3596C73.9168 14.8651 74.0222 15.3917 74.0222 15.9393ZM71.9686 12.7799C71.9686 12.2533 71.7579 11.7689 71.3367 11.3266C69.7359 9.6837 67.7876 8.86226 65.4918 8.86226C63.196 8.86226 61.2793 9.63104 59.7417 11.1686C58.2042 12.7062 57.4354 14.6229 57.4354 16.9187C57.4354 19.2145 58.2042 21.1417 59.7417 22.7004C61.2793 24.2379 63.196 25.0067 65.4918 25.0067H68.3037C68.9355 25.0067 69.441 24.8066 69.8202 24.4064C70.2204 24.0062 70.4205 23.4902 70.4205 22.8583C70.4205 22.2265 70.2204 21.721 69.8202 21.3418C69.441 20.9416 68.9355 20.7415 68.3037 20.7415H65.4918C64.4387 20.7415 63.5435 20.3729 62.8063 19.6358C62.0691 18.8775 61.7006 17.9718 61.7006 16.9187C61.7006 15.8656 62.0691 14.9704 62.8063 14.2332C63.5435 13.496 64.4387 13.1274 65.4918 13.1274C65.7656 13.1274 66.0394 13.1485 66.3133 13.1906L64.0385 15.4338C63.5751 15.8972 63.3434 16.3921 63.3434 16.9187C63.3434 17.5084 63.5541 18.0245 63.9753 18.4668C64.4176 18.9091 64.9337 19.1303 65.5234 19.1303C66.05 19.1303 66.5449 18.9091 67.0083 18.4668L71.0523 14.5176C71.6631 14.0542 71.9686 13.475 71.9686 12.7799ZM88.9246 17.4874C88.9246 18.6879 88.5244 19.6884 87.724 20.4888C86.9236 21.2892 85.9232 21.6894 84.7226 21.6894H81.2789V25.9861C81.2789 27.1867 80.8787 28.1766 80.0783 28.9559C79.2779 29.7563 78.2774 30.1565 77.0769 30.1565C75.8763 30.1565 74.8758 29.7563 74.0755 28.9559C73.2962 28.1766 72.9065 27.1867 72.9065 25.9861V9.20979C72.9065 6.70335 73.7595 4.59709 75.4656 2.89102C77.1717 1.18495 79.2779 0.33192 81.7844 0.33192H84.7226C85.9232 0.33192 86.9236 0.732109 87.724 1.53249C88.5244 2.3118 88.9246 3.30174 88.9246 4.50231C88.9246 5.04993 88.8298 5.5765 88.6402 6.082C88.8298 6.5875 88.9246 7.11407 88.9246 7.66169C88.9246 9.07288 88.398 10.1892 87.3449 11.0106C88.398 11.811 88.9246 12.9168 88.9246 14.328C88.9246 14.8967 88.8298 15.4232 88.6402 15.9077C88.8298 16.4132 88.9246 16.9398 88.9246 17.4874ZM86.871 14.328C86.871 13.6961 86.6709 13.1906 86.2707 12.8115C85.8705 12.4113 85.3545 12.2112 84.7226 12.2112H79.2253V9.20979C79.2253 8.49366 79.4675 7.89338 79.9519 7.40894C80.4574 6.90344 81.0682 6.65069 81.7844 6.65069H84.7226C85.3545 6.65069 85.8705 6.45059 86.2707 6.05041C86.6709 5.65022 86.871 5.13418 86.871 4.50231C86.871 3.87043 86.6709 3.36493 86.2707 2.9858C85.8705 2.58561 85.3545 2.38552 84.7226 2.38552H81.7844C79.8255 2.38552 78.1932 3.03846 76.8873 4.34434C75.6025 5.62916 74.9601 7.25097 74.9601 9.20979V22.8267C74.9601 23.4586 75.1497 23.9746 75.5288 24.3748C75.929 24.754 76.445 24.9435 77.0769 24.9435C77.7088 24.9435 78.2248 24.754 78.625 24.3748C79.0252 23.9746 79.2253 23.4586 79.2253 22.8267V16.4764H84.7226C85.3545 16.4764 85.8705 16.2763 86.2707 15.8761C86.6709 15.4759 86.871 14.9599 86.871 14.328ZM96.7475 7.88285C96.7475 8.68323 96.5685 9.42042 96.2104 10.0944C96.2525 10.3682 96.2736 10.6631 96.2736 10.979V25.9861C96.2736 27.1867 95.8629 28.1766 95.0414 28.9559C94.2411 29.7563 93.2511 30.1565 92.0716 30.1565C90.8711 30.1565 89.8706 29.7563 89.0702 28.9559C88.2909 28.1766 87.9012 27.1867 87.9012 25.9861V10.979C87.9012 10.6842 87.9223 10.3998 87.9644 10.126C87.5853 9.43095 87.3957 8.68323 87.3957 7.88285C87.3957 7.33522 87.4905 6.80866 87.6801 6.30316C87.4905 5.79766 87.3957 5.27109 87.3957 4.72346C87.3957 3.43865 87.8486 2.3434 88.7543 1.43771C89.681 0.510952 90.7868 0.0475757 92.0716 0.0475757C93.3564 0.0475757 94.4517 0.510952 95.3574 1.43771C96.2841 2.3434 96.7475 3.43865 96.7475 4.72346C96.7475 5.27109 96.6527 5.79766 96.4632 6.30316C96.6527 6.80866 96.7475 7.33522 96.7475 7.88285ZM94.6939 4.72346C94.6939 4.00734 94.4306 3.39652 93.9041 2.89102C93.3986 2.36446 92.7877 2.10118 92.0716 2.10118C91.3555 2.10118 90.7341 2.36446 90.2076 2.89102C89.7021 3.39652 89.4493 4.00734 89.4493 4.72346C89.4493 5.43959 89.7021 6.06094 90.2076 6.5875C90.7341 7.093 91.3555 7.34575 92.0716 7.34575C92.7877 7.34575 93.3986 7.093 93.9041 6.5875C94.4306 6.06094 94.6939 5.43959 94.6939 4.72346ZM94.22 22.8267V10.979C94.22 9.56785 93.5039 8.86226 92.0716 8.86226C91.4397 8.86226 90.9237 9.06235 90.5235 9.46254C90.1444 9.84167 89.9548 10.3472 89.9548 10.979V22.8267C89.9548 23.4586 90.1444 23.9746 90.5235 24.3748C90.9237 24.754 91.4397 24.9435 92.0716 24.9435C92.7035 24.9435 93.2195 24.754 93.6197 24.3748C94.0199 23.9746 94.22 23.4586 94.22 22.8267ZM117.834 32.9368C117.834 34.1373 117.423 35.1273 116.602 35.9066C115.801 36.707 114.811 37.1072 113.632 37.1072C111.083 37.1072 108.946 36.2647 107.218 34.5796C105.491 32.8946 104.628 30.7779 104.628 28.2293V26.7444L104.596 18.8143C104.596 18.4984 104.438 18.3404 104.122 18.3404C103.785 18.3404 103.617 18.4984 103.617 18.8143V25.9861C103.617 27.1867 103.217 28.1766 102.416 28.9559C101.616 29.7563 100.615 30.1565 99.4147 30.1565C98.2141 30.1565 97.2137 29.7563 96.4133 28.9559C95.634 28.1766 95.2443 27.1867 95.2443 25.9861V15.6549C95.2443 13.1696 96.0974 11.0738 97.8034 9.36776C99.5306 7.66169 101.637 6.80866 104.122 6.80866C106.608 6.80866 108.703 7.66169 110.409 9.36776C112.136 11.0738 113 13.1696 113 15.6549V25.0699C113 25.4069 113.169 25.5754 113.506 25.5754C114.748 25.5754 115.78 25.9651 116.602 26.7444C117.423 27.5448 117.834 28.5558 117.834 29.7774C117.834 30.3461 117.739 30.8726 117.55 31.3571C117.739 31.8415 117.834 32.3681 117.834 32.9368ZM115.78 29.7774C115.78 29.1455 115.58 28.6295 115.18 28.2293C114.78 27.8291 114.264 27.629 113.632 27.629H113.506C112.789 27.629 112.179 27.3763 111.673 26.8707C111.189 26.3863 110.946 25.786 110.946 25.0699V15.6549C110.946 13.7172 110.294 12.1059 108.988 10.8211C107.682 9.5152 106.06 8.86226 104.122 8.86226C102.184 8.86226 100.563 9.5152 99.2567 10.8211C97.9509 12.1059 97.2979 13.7172 97.2979 15.6549V22.8267C97.2979 23.4586 97.4875 23.9746 97.8666 24.3748C98.2668 24.754 98.7828 24.9435 99.4147 24.9435C100.047 24.9435 100.563 24.754 100.963 24.3748C101.363 23.9746 101.563 23.4586 101.563 22.8267V15.6549C101.563 14.9388 101.805 14.3385 102.29 13.8541C102.795 13.3696 103.406 13.1274 104.122 13.1274C104.817 13.1274 105.407 13.3802 105.891 13.8857C106.397 14.3701 106.65 14.9599 106.65 15.6549L106.681 25.0699C106.681 27.0287 107.324 28.6505 108.609 29.9354C109.914 31.2412 111.547 31.8942 113.506 31.8942H113.632C114.264 31.8942 114.78 31.6941 115.18 31.2939C115.58 30.9148 115.78 30.4093 115.78 29.7774ZM132.157 20.0465C132.157 22.8689 131.167 25.2595 129.187 27.2183C127.228 29.1771 124.838 30.1565 122.015 30.1565C119.172 30.1565 116.771 29.1771 114.812 27.2183C112.874 25.2805 111.905 22.8899 111.905 20.0465C111.905 19.5199 111.947 18.9934 112.032 18.4668C111.947 17.9402 111.905 17.4137 111.905 16.8871C111.905 14.0226 112.874 11.6215 114.812 9.6837C116.75 7.72488 119.151 6.74547 122.015 6.74547C122.647 6.74547 123.237 6.86131 123.784 7.093V4.50231C123.784 3.32281 124.185 2.33286 124.985 1.53249C125.785 0.732109 126.775 0.33192 127.955 0.33192C129.155 0.33192 130.156 0.732109 130.956 1.53249C131.757 2.3118 132.157 3.30174 132.157 4.50231V20.0465ZM130.103 16.8871V4.50231C130.103 3.87043 129.903 3.36493 129.503 2.9858C129.103 2.58561 128.587 2.38552 127.955 2.38552C127.344 2.38552 126.839 2.58561 126.438 2.9858C126.038 3.38599 125.838 3.89149 125.838 4.50231V16.8871C125.838 17.9402 125.459 18.8354 124.701 19.5726C123.963 20.3098 123.068 20.6784 122.015 20.6784C120.962 20.6784 120.067 20.3098 119.33 19.5726C118.593 18.8354 118.224 17.9402 118.224 16.8871C118.224 15.834 118.593 14.9388 119.33 14.2016C120.067 13.4434 120.962 13.0642 122.015 13.0642C122.647 13.0642 123.163 12.8747 123.563 12.4956C123.963 12.0954 124.164 11.5793 124.164 10.9475C124.164 10.3156 123.963 9.79954 123.563 9.39935C123.163 8.99916 122.647 8.79907 122.015 8.79907C119.719 8.79907 117.803 9.57838 116.265 11.137C114.728 12.6746 113.959 14.5913 113.959 16.8871C113.959 19.1619 114.728 21.0785 116.265 22.6372C117.824 24.1747 119.74 24.9435 122.015 24.9435C124.29 24.9435 126.207 24.1747 127.765 22.6372C129.324 21.0785 130.103 19.1619 130.103 16.8871ZM123.279 18.0877C122.794 18.1087 122.12 18.2351 121.257 18.4668C121.489 18.5721 121.741 18.6248 122.015 18.6248C122.521 18.6248 122.942 18.4457 123.279 18.0877Z" fill="#FFFCF8"/>
</svg>
