<svg width="20" height="25" viewBox="0 0 20 25" fill="none" xmlns="http://www.w3.org/2000/svg">
<path d="M19.3179 8.62554C19.2094 8.69345 16.627 10.1266 16.627 13.3044C16.7487 16.9283 19.8859 18.1992 19.9397 18.1992C19.8859 18.2672 19.4661 19.9305 18.2225 21.6742C17.2356 23.1762 16.1402 24.6905 14.4768 24.6905C12.8946 24.6905 12.3266 23.6895 10.5009 23.6895C8.54032 23.6895 7.98557 24.6905 6.48447 24.6905C4.82109 24.6905 3.64455 23.095 2.60383 21.6071C1.25178 19.6598 0.102586 16.6038 0.0620157 13.6695C0.0346748 12.1146 0.332778 10.5861 1.0895 9.28789C2.15756 7.47546 4.06436 6.24512 6.14668 6.20455C7.74215 6.15075 9.16211 7.29995 10.1358 7.29995C11.0689 7.29995 12.8134 6.20455 14.7873 6.20455C15.6392 6.20543 17.9112 6.46208 19.3179 8.62554ZM10.0009 5.8941C9.71686 4.47414 10.5009 3.05418 11.2312 2.14841C12.1643 1.05301 13.6381 0.309513 14.909 0.309513C14.9901 1.72947 14.4759 3.12209 13.5569 4.13635C12.7323 5.23175 11.3123 6.05638 10.0009 5.8941Z" fill="black"/>
</svg>
