<svg width="20" height="21" viewBox="0 0 20 21" fill="none" xmlns="http://www.w3.org/2000/svg">
<path d="M19.7467 8.55325H18.9461V8.512H10.0001V12.488H15.6177C14.7981 14.8025 12.5959 16.464 10.0001 16.464C6.70644 16.464 4.03606 13.7936 4.03606 10.5C4.03606 7.20638 6.70644 4.536 10.0001 4.536C11.5204 4.536 12.9035 5.10954 13.9567 6.04638L16.7682 3.23485C14.9929 1.58034 12.6183 0.559998 10.0001 0.559998C4.51069 0.559998 0.0600586 5.01063 0.0600586 10.5C0.0600586 15.9894 4.51069 20.44 10.0001 20.44C15.4894 20.44 19.9401 15.9894 19.9401 10.5C19.9401 9.83352 19.8715 9.18295 19.7467 8.55325Z" fill="#FBC02D"/>
<path d="M1.20614 5.87342L4.47193 8.26847C5.35559 6.08067 7.49568 4.536 10.0001 4.536C11.5204 4.536 12.9035 5.10954 13.9567 6.04638L16.7682 3.23485C14.9929 1.58034 12.6183 0.559998 10.0001 0.559998C6.1821 0.559998 2.87109 2.71549 1.20614 5.87342Z" fill="#E53935"/>
<path d="M10.0001 20.44C12.5676 20.44 14.9005 19.4574 16.6643 17.8596L13.5879 15.2563C12.5899 16.0122 11.3494 16.464 10.0001 16.464C7.41466 16.464 5.21942 14.8154 4.39241 12.5148L1.15097 15.0123C2.79604 18.2313 6.13688 20.44 10.0001 20.44Z" fill="#4CAF50"/>
<path d="M19.7467 8.55325L19.7388 8.512H18.9461H10.0001V12.488H15.6177C15.224 13.5998 14.5088 14.5585 13.5864 15.2568L13.5879 15.2563L16.6643 17.8596C16.4466 18.0574 19.9401 15.47 19.9401 10.5C19.9401 9.83352 19.8715 9.18295 19.7467 8.55325Z" fill="#1565C0"/>
</svg>
