<svg width="21" height="21" viewBox="0 0 21 21" fill="none" xmlns="http://www.w3.org/2000/svg">
<path d="M6.44098 0.23877C3.11249 0.23877 0.377197 2.9704 0.377197 6.30255V14.7977C0.377197 18.1262 3.10883 20.8615 6.44098 20.8615H14.9361C18.2646 20.8615 20.9999 18.1299 20.9999 14.7977V6.30255C20.9999 2.97406 18.2683 0.23877 14.9361 0.23877H6.44098ZM6.44098 2.11356H14.9361C17.254 2.11356 19.1251 3.98469 19.1251 6.30255V14.7977C19.1251 17.1156 17.254 18.9867 14.9361 18.9867H6.44098C4.12312 18.9867 2.25199 17.1156 2.25199 14.7977V6.30255C2.25199 3.98469 4.12312 2.11356 6.44098 2.11356ZM16.225 4.16412C15.7527 4.16412 15.3755 4.54127 15.3755 5.01363C15.3755 5.48599 15.7527 5.86315 16.225 5.86315C16.6974 5.86315 17.0746 5.48599 17.0746 5.01363C17.0746 4.54127 16.6974 4.16412 16.225 4.16412ZM10.6886 4.92575C7.59441 4.92575 5.06418 7.45599 5.06418 10.5501C5.06418 13.6443 7.59441 16.1745 10.6886 16.1745C13.7827 16.1745 16.3129 13.6443 16.3129 10.5501C16.3129 7.45599 13.7827 4.92575 10.6886 4.92575ZM10.6886 6.80054C12.7721 6.80054 14.4381 8.46662 14.4381 10.5501C14.4381 12.6336 12.7721 14.2997 10.6886 14.2997C8.60504 14.2997 6.93897 12.6336 6.93897 10.5501C6.93897 8.46662 8.60504 6.80054 10.6886 6.80054Z" fill="#F3F3F3"/>
</svg>
