<svg width="21" height="21" viewBox="0 0 21 21" fill="none" xmlns="http://www.w3.org/2000/svg">
<path d="M18.424 0.23877H2.71143C1.35623 0.23877 0.256348 1.33865 0.256348 2.69385V18.4064C0.256348 19.7616 1.35623 20.8615 2.71143 20.8615H18.424C19.7792 20.8615 20.8791 19.7616 20.8791 18.4064V2.69385C20.8791 1.33865 19.7792 0.23877 18.424 0.23877ZM6.63957 8.09504V17.4244H3.69347V8.09504H6.63957ZM3.69347 5.37972C3.69347 4.69229 4.28269 4.1669 5.16652 4.1669C6.05035 4.1669 6.6052 4.69229 6.63957 5.37972C6.63957 6.06714 6.08963 6.62199 5.16652 6.62199C4.28269 6.62199 3.69347 6.06714 3.69347 5.37972ZM17.4419 17.4244H14.4958C14.4958 17.4244 14.4958 12.8775 14.4958 12.5142C14.4958 11.5322 14.0048 10.5501 12.7773 10.5305H12.738C11.5497 10.5305 11.0587 11.542 11.0587 12.5142C11.0587 12.961 11.0587 17.4244 11.0587 17.4244H8.11262V8.09504H11.0587V9.35204C11.0587 9.35204 12.0064 8.09504 13.9115 8.09504C15.8609 8.09504 17.4419 9.43552 17.4419 12.1508V17.4244Z" fill="#F3F3F3"/>
</svg>
