<svg width="20" height="14" viewBox="0 0 20 14" fill="none" xmlns="http://www.w3.org/2000/svg">
<path d="M14.0411 0.780281C13.9704 0.695465 13.8827 0.626317 13.7838 0.577246C13.6849 0.528174 13.5768 0.500256 13.4665 0.495271C13.3561 0.490286 13.246 0.508344 13.143 0.548293C13.0401 0.588241 12.9466 0.649205 12.8685 0.727296C12.7904 0.805388 12.7294 0.898894 12.6895 1.00185C12.6495 1.10481 12.6315 1.21497 12.6364 1.32529C12.6414 1.43562 12.6693 1.54369 12.7184 1.64263C12.7675 1.74157 12.8366 1.8292 12.9214 1.89993L17.2874 6.29764L1.44245 6.44575C1.23862 6.45656 1.04671 6.54515 0.906251 6.69326C0.765795 6.84136 0.6875 7.0377 0.6875 7.24182C0.6875 7.44593 0.765795 7.64227 0.906251 7.79038C1.04671 7.93848 1.23862 8.02707 1.44245 8.03789L17.2874 7.88978L13.0147 12.1535C12.8707 12.3043 12.7904 12.5048 12.7904 12.7133C12.7904 12.9218 12.8707 13.1223 13.0147 13.2731C13.0882 13.3468 13.1754 13.4053 13.2715 13.4451C13.3675 13.485 13.4705 13.5055 13.5745 13.5055C13.6786 13.5055 13.7816 13.485 13.8776 13.4451C13.9737 13.4053 14.0609 13.3468 14.1344 13.2731L19.7618 7.6457C19.8371 7.5732 19.897 7.48626 19.938 7.39006C19.9789 7.29387 20 7.19041 20 7.08587C20 6.98134 19.9789 6.87788 19.938 6.78169C19.897 6.68549 19.8371 6.59855 19.7618 6.52605L14.0411 0.780281Z" fill="#F4E9E1"/>
</svg>
