<svg width="28" height="21" viewBox="0 0 28 21" fill="none" xmlns="http://www.w3.org/2000/svg">
<path d="M26.9906 3.7833C26.7365 2.36599 25.5253 1.33385 24.1198 1.01162C22.0166 0.560999 18.124 0.23877 13.9125 0.23877C9.70349 0.23877 5.74866 0.560999 3.6429 1.01162C2.23989 1.33385 1.02628 2.30054 0.772094 3.7833C0.515417 5.39445 0.26123 7.65006 0.26123 10.5501C0.26123 13.4502 0.515417 15.7058 0.834395 17.317C1.09107 18.7343 2.3022 19.7664 3.7052 20.0886C5.93805 20.5393 9.76579 20.8615 13.9773 20.8615C18.1888 20.8615 22.0166 20.5393 24.2494 20.0886C25.6524 19.7664 26.8635 18.7997 27.1202 17.317C27.3744 15.7058 27.6934 13.3847 27.7582 10.5501C27.6286 7.65006 27.3096 5.39445 26.9906 3.7833ZM10.4685 15.0613V6.03891L18.2511 10.5501L10.4685 15.0613Z" fill="#F3F3F3"/>
</svg>
